<svg xmlns="http://www.w3.org/2000/svg" width="24" height="24" fill="#E1306C" viewBox="0 0 24 24">
  <path d="M12 2.163c3.204 0 3.584.012 4.85.07 1.366.062 2.633.34 3.608 1.316.975.975 1.254 2.242 1.316 3.608.058 1.266.07 1.646.07 4.85s-.012 3.584-.07 4.85c-.062 1.366-.34 2.633-1.316 3.608-.975.975-2.242 1.254-3.608 1.316-1.266.058-1.646.07-4.85.07s-3.584-.012-4.85-.07c-1.366-.062-2.633-.34-3.608-1.316-.975-.975-1.254-2.242-1.316-3.608C2.175 15.647 2.163 15.267 2.163 12s.012-3.584.07-4.85c.062-1.366.34-2.633 1.316-3.608.975-.975 2.242-1.254 3.608-1.316C8.416 2.175 8.796 2.163 12 2.163zm0-2.163C8.741 0 8.332.013 7.052.072 5.78.131 4.659.444 3.8 1.303c-.859.859-1.172 1.98-1.231 3.252C2.013 5.668 2 6.077 2 9.336v5.328c0 3.26.013 3.669.072 4.95.059 1.272.372 2.393 1.231 3.252.859.859 1.98 1.172 3.252 1.231 1.281.059 1.69.072 4.95.072s3.669-.013 4.95-.072c1.272-.059 2.393-.372 3.252-1.231.859-.859 1.172-1.98 1.231-3.252.059-1.281.072-1.69.072-4.95V9.336c0-3.26-.013-3.669-.072-4.95-.059-1.272-.372-2.393-1.231-3.252-.859-.859-1.98-1.172-3.252-1.231C15.669.013 15.26 0 12 0z"/>
  <path d="M12 5.838A6.162 6.162 0 1 0 12 18.162 6.162 6.162 0 1 0 12 5.838zm0 10.162A4 4 0 1 1 12 8a4 4 0 1 1 0 8z"/>
  <circle cx="18.406" cy="5.595" r="1.44"/>
</svg>