<svg xmlns="http://www.w3.org/2000/svg" width="24" height="24" fill="#E60023" viewBox="0 0 24 24">
  <path d="M12 0C5.373 0 0 5.373 0 12a12.009 12.009 0 0 0 8.217 11.36c-.113-.962-.213-2.438.044-3.49.234-.996 1.505-6.407 1.505-6.407s-.383-.766-.383-1.898c0-1.777 1.031-3.103 2.313-3.103 1.092 0 1.62.82 1.62 1.802 0 1.097-.698 2.737-1.057 4.26-.3 1.274.637 2.312 1.89 2.312 2.27 0 3.99-2.393 3.99-5.844 0-3.057-2.2-5.2-5.335-5.2-3.633 0-5.764 2.72-5.764 5.529 0 1.097.422 2.275.95 2.916.105.128.12.239.089.367-.096.387-.308 1.23-.349 1.401-.055.234-.18.285-.419.173-1.566-.729-2.543-3.02-2.543-4.865 0-3.96 2.878-7.6 8.294-7.6 4.355 0 7.74 3.1 7.74 7.245 0 4.327-2.729 7.82-6.52 7.82-1.273 0-2.47-.66-2.88-1.44l-.783 2.985c-.282 1.068-1.05 2.4-1.564 3.215A12.002 12.002 0 0 0 12 24c6.627 0 12-5.373 12-12S18.627 0 12 0z"/>
</svg>